HIERARCHY
ROOT Hips
{
	OFFSET 0.000000 0.000000 0.000000
	CHANNELS 6 Xposition Yposition Zposition Zrotation Yrotation Xrotation 
	JOINT LeftUpLeg_virtual
	{
		OFFSET 0.000000 0.000000 0.000000
		CHANNELS 3 Zrotation Yrotation Xrotation
		JOINT LeftUpLeg
		{
			OFFSET 10.205400 -3.823500 0.155100
			CHANNELS 3 Zrotation Yrotation Xrotation
			JOINT LeftLeg
			{
				OFFSET 0.708757 -12.982077 0.567790
				CHANNELS 3 Zrotation Yrotation Xrotation
				JOINT LeftFoot
				{
					OFFSET -0.708756 -10.717838 -2.184338
					CHANNELS 3 Zrotation Yrotation Xrotation
					JOINT LeftToeBase
					{
						OFFSET 0.108149 -7.191104 7.560241
						CHANNELS 3 Zrotation Yrotation Xrotation
						End Site
						{
							OFFSET 0.000000 0.000000 0.000000
						}
					}
				}
			}
		}
	}
	JOINT RightUpLeg_virtual
	{
		OFFSET 0.000000 0.000000 0.000000
		CHANNELS 3 Zrotation Yrotation Xrotation
		JOINT RightUpLeg
		{
			OFFSET -10.205400 -3.823500 0.005500
			CHANNELS 3 Zrotation Yrotation Xrotation
			JOINT RightLeg
			{
				OFFSET -0.708756 -12.982134 0.610632
				CHANNELS 3 Zrotation Yrotation Xrotation
				JOINT RightFoot
				{
					OFFSET 0.708754 -10.717769 -1.945823
					CHANNELS 3 Zrotation Yrotation Xrotation
					JOINT RightToeBase
					{
						OFFSET -0.108140 -7.191069 7.372968
						CHANNELS 3 Zrotation Yrotation Xrotation
						End Site
						{
							OFFSET 0.000000 0.000000 0.000000
						}
					}
				}
			}
		}
	}
	JOINT Spine_virtual
	{
		OFFSET 0.000000 0.000000 0.000000
		CHANNELS 3 Zrotation Yrotation Xrotation
		JOINT Spine
		{
			OFFSET 0.000000 6.876099 0.125700
			CHANNELS 3 Zrotation Yrotation Xrotation
			JOINT Spine1
			{
				OFFSET 0.000000 8.022060 0.146608
				CHANNELS 3 Zrotation Yrotation Xrotation
				JOINT Spine2
				{
					OFFSET 0.000000 9.168068 0.167552
					CHANNELS 3 Zrotation Yrotation Xrotation
					JOINT Neck_virtual
					{
						OFFSET 0.000000 0.000000 0.000000
						CHANNELS 3 Zrotation Yrotation Xrotation
						JOINT Neck
						{
							OFFSET 0.000000 10.314075 0.188496
							CHANNELS 3 Zrotation Yrotation Xrotation
							JOINT Head
							{
								OFFSET 0.000000 7.643700 -2.377400
								CHANNELS 3 Zrotation Yrotation Xrotation
								End Site
								{
									OFFSET 0.000000 0.000000 0.000000
								}
							}
						}
					}
					JOINT LeftShoulder_virtual
					{
						OFFSET 0.000000 0.000000 0.000000
						CHANNELS 3 Zrotation Yrotation Xrotation
						JOINT LeftShoulder
						{
							OFFSET 4.392200 8.824978 0.174984
							CHANNELS 3 Zrotation Yrotation Xrotation
							JOINT LeftArm
							{
								OFFSET 8.771219 -2.981674 -0.026999
								CHANNELS 3 Zrotation Yrotation Xrotation
								JOINT LeftForeArm
								{
									OFFSET 8.512804 0.000000 -0.000000
									CHANNELS 3 Zrotation Yrotation Xrotation
									JOINT LeftHand
									{
										OFFSET 18.484802 0.000000 -0.000000
										CHANNELS 3 Zrotation Yrotation Xrotation
										End Site
										{
											OFFSET 0.000000 0.000000 0.000000
										}
									}
								}
							}
						}
					}
					JOINT RightShoulder_virtual
					{
						OFFSET 0.000000 0.000000 0.000000
						CHANNELS 3 Zrotation Yrotation Xrotation
						JOINT RightShoulder
						{
							OFFSET -4.392200 8.824993 0.141379
							CHANNELS 3 Zrotation Yrotation Xrotation
							JOINT RightArm
							{
								OFFSET -8.771282 -2.981682 -0.094208
								CHANNELS 3 Zrotation Yrotation Xrotation
								JOINT RightForeArm
								{
									OFFSET -8.494598 0.000000 0.000000
									CHANNELS 3 Zrotation Yrotation Xrotation
									JOINT RightHand
									{
										OFFSET -18.483803 0.000000 0.000001
										CHANNELS 3 Zrotation Yrotation Xrotation
										End Site
										{
											OFFSET 0.000000 0.000000 0.000000
										}
									}
								}
							}
						}
					}
				}
			}
		}
	}
}
MOTION
Frames: 14
Frame Time: 0.033333
-12.067617 34.854874 95.313148 -179.920160 11.352047 179.569539 -2.799483 -3.399596 10.683564 -10.705602 -5.555275 -29.544127 18.949147 9.308957 21.886100 -5.653602 1.051394 5.370078 0.000000 0.000000 0.000000 3.778383 -2.625011 8.590191 -0.288803 14.178330 -29.848808 -7.159282 0.978052 21.281833 0.323307 5.589351 8.051169 0.000000 0.000000 0.000000 1.711938 -0.140791 -1.071295 -0.615731 -0.458352 -7.359869 -0.388543 -2.084403 11.588831 -0.002263 -0.095621 -0.074110 -0.755427 0.140456 14.538818 2.046141 -2.369990 11.279026 0.000000 0.000000 0.000000 0.572265 0.844080 11.481996 -16.779161 -13.015185 3.050178 -49.903350 14.897466 14.269075 -3.350639 -24.427511 6.976906 0.000000 0.000000 0.000000 -2.915895 2.001912 11.005798 26.717058 4.610043 2.377352 38.630471 -9.139754 5.773803 -5.519118 23.126259 -3.456185 0.000000 0.000000 0.000000 
-12.030157 34.852329 95.291649 -179.880299 11.285450 179.429042 -2.901700 -3.416831 10.651026 -10.309736 -5.603805 -29.866505 18.708202 9.197493 21.617021 -5.843045 1.025495 5.030562 0.000000 0.000000 0.000000 3.949415 -2.830729 8.777137 -0.182066 13.876595 -29.689910 -7.236547 0.567341 21.319379 0.319054 5.657061 8.533003 0.000000 0.000000 0.000000 1.788891 -0.252676 -0.878292 -0.617631 -0.391696 -7.355589 -0.362204 -2.090782 11.477190 0.001619 -0.100173 -0.132945 -0.711184 0.114428 14.383747 2.052174 -2.320281 11.182463 0.000000 0.000000 0.000000 0.614827 0.870931 11.477755 -16.814800 -12.852884 2.957092 -49.868007 15.064052 14.309611 -3.348555 -24.091899 6.948075 0.000000 0.000000 0.000000 -2.891617 1.972358 10.955458 26.773720 4.693352 2.410992 38.667118 -8.991608 5.710780 -5.484909 22.916830 -3.443628 0.000000 0.000000 0.000000 
-11.979759 34.853100 95.226181 -179.839632 11.342597 179.462838 -2.760461 -3.539148 10.768941 -10.333198 -5.513571 -29.869599 18.667503 9.203066 21.664071 -5.892997 1.190591 5.085225 0.000000 0.000000 0.000000 3.998131 -3.112137 8.842776 -0.066824 13.800135 -29.569750 -7.280141 0.642535 21.030310 0.583277 5.592968 8.570165 0.000000 0.000000 0.000000 1.871081 -0.312096 -0.806690 -0.621488 -0.455573 -7.486560 -0.372981 -2.226169 11.382018 -0.008357 -0.032744 -0.042328 -0.713200 0.174720 14.442343 1.943986 -2.342521 11.297731 0.000000 0.000000 0.000000 0.628066 0.935496 11.409892 -16.901047 -12.721443 3.059233 -49.625761 15.292635 14.474479 -3.360333 -23.879981 6.988504 0.000000 0.000000 0.000000 -2.875603 1.998979 10.876543 26.767050 4.902942 2.438667 38.631980 -8.721754 5.391602 -5.498260 22.835704 -3.521002 0.000000 0.000000 0.000000 
-11.953044 34.848648 95.154388 -179.883140 11.366601 179.477837 -2.697487 -3.720216 10.850676 -10.480206 -5.251671 -29.871102 18.617979 9.206979 21.711093 -6.014942 1.314019 5.111970 0.000000 0.000000 0.000000 3.975515 -3.381550 8.905885 -0.032422 13.912117 -29.466413 -7.341163 0.673124 20.828122 0.730449 5.624770 8.531412 0.000000 0.000000 0.000000 1.919165 -0.549844 -0.635729 -0.637986 -0.221329 -7.671248 -0.350014 -2.117736 11.261211 -0.004890 -0.123096 -0.047246 -0.697595 0.134861 14.463209 1.851174 -2.367191 11.220495 0.000000 0.000000 0.000000 0.570240 0.792967 11.448112 -17.045121 -12.538504 3.128117 -49.250069 15.481524 14.674463 -3.243194 -23.864423 6.947937 0.000000 0.000000 0.000000 -2.862307 1.987400 10.899626 26.708627 5.092420 2.528688 38.683282 -8.618626 5.243933 -5.570202 22.904317 -3.609250 0.000000 0.000000 0.000000 
-11.943748 34.839828 95.117264 -179.866816 11.475911 179.559731 -2.571528 -3.871190 10.875381 -10.585608 -5.027781 -29.922075 18.503355 9.253819 21.704502 -6.082277 1.505107 5.117335 0.000000 0.000000 0.000000 4.017495 -3.609744 8.837166 0.005955 13.895211 -29.389635 -7.390804 0.767206 20.641086 0.913263 5.649905 8.514279 0.000000 0.000000 0.000000 2.052372 -0.728047 -0.572771 -0.582281 -0.086767 -7.863162 -0.377715 -2.161314 11.322058 -0.020211 -0.115344 -0.014634 -0.716106 0.185771 14.290741 1.750785 -2.414131 11.160675 0.000000 0.000000 0.000000 0.593662 1.026666 11.350297 -17.158258 -12.502609 3.087754 -48.821031 15.646188 14.862579 -3.225983 -23.913310 7.011958 0.000000 0.000000 0.000000 -2.884461 2.039654 10.888226 26.594856 5.380366 2.636361 38.745686 -8.754847 5.095059 -5.667320 23.090597 -3.788204 0.000000 0.000000 0.000000 
-11.945938 34.821560 95.129120 -179.918289 11.691321 179.586232 -2.501612 -3.882036 10.861865 -10.770720 -4.729114 -29.940179 18.448288 9.242200 21.647366 -6.165786 1.597550 5.120162 0.000000 0.000000 0.000000 4.017348 -3.631434 8.677831 0.052953 13.867945 -29.349039 -7.509297 0.876900 20.545597 1.120900 5.741534 8.611019 0.000000 0.000000 0.000000 2.164021 -0.769053 -0.489645 -0.508289 0.195482 -8.058381 -0.399693 -2.121401 11.375993 -0.006016 -0.066445 -0.074995 -0.731620 0.062082 14.327148 1.689329 -2.482869 11.350096 0.000000 0.000000 0.000000 0.588361 0.902034 11.455325 -17.275191 -12.525155 3.084103 -48.361503 15.748432 15.053223 -3.107326 -23.908070 6.968369 0.000000 0.000000 0.000000 -2.943047 1.935236 10.972695 26.563676 5.468506 2.818797 38.854706 -9.114174 5.081611 -5.721638 23.380422 -3.861342 0.000000 0.000000 0.000000 
-11.980518 34.801743 95.169006 -179.925556 11.800088 179.595590 -2.427001 -3.867299 10.733297 -10.975903 -4.468839 -29.932894 18.297827 9.294494 21.588881 -6.178376 1.655787 5.191669 0.000000 0.000000 0.000000 3.984808 -3.589190 8.517302 0.115277 13.766852 -29.293998 -7.363551 1.089821 20.558472 1.273107 5.368278 8.683826 0.000000 0.000000 0.000000 2.279811 -0.767023 -0.452960 -0.419915 0.346597 -8.223188 -0.455664 -2.224983 11.375494 -0.016720 -0.137494 -0.028466 -0.764391 0.003944 14.370049 1.698723 -2.570700 11.824949 0.000000 0.000000 0.000000 0.586134 0.873749 11.454200 -17.391899 -12.486806 3.024080 -47.995196 15.766486 15.282731 -3.121736 -23.662074 7.088118 0.000000 0.000000 0.000000 -2.985190 1.866053 10.955982 26.567715 5.691694 2.848898 38.912469 -9.689993 5.049041 -5.770955 23.812872 -4.015463 0.000000 0.000000 0.000000 
-12.019458 34.795815 95.219673 -179.900503 11.931833 179.593431 -2.343143 -3.676634 10.518627 -11.082382 -4.199084 -29.891759 18.052070 9.341673 21.532839 -6.122363 1.606086 5.320663 0.000000 0.000000 0.000000 4.045424 -3.278608 8.376901 0.175713 13.424807 -29.211893 -7.384156 1.304780 20.656135 1.361446 5.240096 8.703216 0.000000 0.000000 0.000000 2.367810 -0.542078 -0.467284 -0.307501 0.480684 -8.349371 -0.468741 -2.328203 11.504936 0.014057 -0.110457 -0.071814 -0.803396 -0.078040 14.344012 1.849180 -2.657783 12.292900 0.000000 0.000000 0.000000 0.547032 0.722228 11.481370 -17.456367 -12.534719 2.984651 -47.743835 15.636661 15.550114 -3.133415 -23.334431 7.116395 0.000000 0.000000 0.000000 -3.041411 1.716716 10.971960 26.674870 5.746745 2.999912 38.963849 -10.158908 4.775743 -5.804092 24.084099 -4.158605 0.000000 0.000000 0.000000 
-12.064713 34.800747 95.246399 -179.904615 11.932033 179.617228 -2.360037 -3.368540 10.266883 -11.179534 -3.770934 -29.879871 17.715434 9.294125 21.475844 -6.004562 1.409209 5.541388 0.000000 0.000000 0.000000 4.102855 -2.829942 8.234070 0.192291 12.967465 -29.077656 -7.372655 1.481922 20.839501 1.408989 5.056076 8.626117 0.000000 0.000000 0.000000 2.378792 -0.255135 -0.481424 -0.237890 0.543438 -8.453784 -0.485767 -2.458421 11.622571 -0.001781 -0.088193 -0.114205 -0.808015 -0.226662 14.398553 2.076956 -2.776965 12.998406 0.000000 0.000000 0.000000 0.595258 0.525060 11.444089 -17.449783 -12.532429 2.896043 -47.595856 15.436989 15.990284 -3.212101 -22.941530 7.135489 0.000000 0.000000 0.000000 -3.031547 1.524737 10.967865 26.864519 5.823358 3.061831 38.961370 -10.373517 4.635754 -5.795395 24.241111 -4.146512 0.000000 0.000000 0.000000 
-12.121240 34.802059 95.203682 -179.894561 11.715200 179.673904 -2.324188 -3.200399 10.080181 -11.455912 -3.234051 -29.984308 17.479374 9.151640 21.476150 -5.894389 1.076157 5.830017 0.000000 0.000000 0.000000 4.186752 -2.612197 8.052057 0.121574 12.433442 -28.887138 -7.236735 1.660065 21.307887 1.520290 4.784276 7.991517 0.000000 0.000000 0.000000 2.301230 -0.053810 -0.510822 -0.198177 0.596081 -8.567642 -0.478882 -2.591959 11.682190 -0.000904 -0.070784 -0.078897 -0.808212 -0.431447 14.541121 2.436690 -2.902622 13.906403 0.000000 0.000000 0.000000 0.610933 0.216721 11.361406 -17.396613 -12.414950 2.817577 -47.529599 15.210654 16.488690 -3.301342 -22.704039 7.138501 0.000000 0.000000 0.000000 -3.012015 1.310023 10.901054 27.090846 5.817660 3.098144 39.037331 -10.457324 4.763581 -5.820498 24.368626 -4.126557 0.000000 0.000000 0.000000 
-12.187023 34.791447 95.021088 -179.890941 11.328530 179.766454 -2.239582 -3.125439 10.176361 -11.738713 -3.181755 -30.184986 17.165580 9.341351 21.742586 -5.677134 0.823119 6.058344 0.000000 0.000000 0.000000 4.255132 -2.348707 8.200621 -0.104570 11.836615 -28.892322 -7.090389 1.732987 22.095503 1.620461 4.551902 6.903491 0.000000 0.000000 0.000000 2.240633 -0.028076 -0.542345 -0.192285 0.683049 -8.727635 -0.492890 -2.690854 11.691763 -0.014937 -0.071520 -0.029717 -0.812078 -0.572931 14.627007 2.960266 -2.981059 14.887277 0.000000 0.000000 0.000000 0.587857 0.186255 11.202621 -17.330673 -12.213891 2.636438 -47.627865 15.056898 16.892984 -3.389190 -22.767023 7.017045 0.000000 0.000000 0.000000 -3.011150 1.207817 10.818402 27.254869 5.708454 3.091962 39.133753 -10.657506 5.196337 -5.884214 24.506377 -3.908309 0.000000 0.000000 0.000000 
-12.282074 34.748898 94.697540 -179.937837 10.861913 179.877608 -1.983610 -3.201383 10.603710 -11.917545 -3.576281 -30.469081 17.081825 10.629091 22.374361 -5.676729 0.491600 6.196167 0.000000 0.000000 0.000000 4.379108 -2.304727 8.323918 -0.541476 11.208519 -28.994904 -6.961625 1.980725 23.715274 1.659036 4.387819 4.861313 0.000000 0.000000 0.000000 2.196221 -0.171271 -0.601873 -0.217531 0.871767 -8.953587 -0.516121 -2.708829 11.627321 -0.015186 -0.048368 0.038176 -0.880734 -0.630780 14.613432 3.483166 -3.125955 15.692583 0.000000 0.000000 0.000000 0.536194 0.161182 11.011993 -17.250397 -11.712669 2.445150 -47.834912 15.149401 17.074995 -3.508215 -23.170126 6.938599 0.000000 0.000000 0.000000 -3.039215 1.156647 10.703159 27.301000 5.368869 3.061020 39.229458 -11.098151 5.719761 -5.925322 24.786664 -4.054452 0.000000 0.000000 0.000000 
-12.414330 34.688984 94.279945 -179.873141 10.289180 -179.981113 -1.776084 -3.646135 11.112034 -12.261632 -3.910386 -30.866298 16.851018 11.088021 23.452397 -5.354250 0.236442 5.451966 0.000000 0.000000 0.000000 4.562714 -2.571111 8.419645 -1.106588 10.754348 -28.939006 -6.732874 2.074056 25.358780 1.749623 4.331815 2.662751 0.000000 0.000000 0.000000 2.292906 -0.474639 -0.693756 -0.211622 1.163979 -9.203976 -0.491505 -2.661184 11.514791 0.004060 -0.004013 -0.019161 -0.906650 -0.654345 14.637864 4.019595 -3.314593 16.350819 0.000000 0.000000 0.000000 0.429494 0.096634 10.886469 -17.199776 -11.119772 2.299662 -48.177105 15.333601 16.883471 -3.549634 -23.985903 6.692726 0.000000 0.000000 0.000000 -3.107227 1.104564 10.581775 27.122942 4.821248 2.998754 39.254682 -11.739861 5.844589 -6.062252 25.278487 -4.025423 0.000000 0.000000 0.000000 
-12.570756 34.628281 93.909386 -179.782177 9.734577 -179.902142 -1.566873 -4.278104 11.683092 -12.616900 -4.320303 -31.471422 16.771823 11.436305 24.774006 -5.058523 0.201060 4.507064 0.000000 0.000000 0.000000 4.901587 -3.141883 8.460343 -1.945132 10.176317 -29.290372 -6.291166 1.932296 27.262640 2.053231 4.528924 0.977850 0.000000 0.000000 0.000000 2.587290 -1.009973 -0.639338 -0.237075 1.452630 -9.392063 -0.467994 -2.600127 11.304395 -0.044891 -0.032328 0.004222 -0.931338 -0.562080 14.422860 4.539645 -3.617462 16.660332 0.000000 0.000000 0.000000 0.409320 0.253028 10.649355 -17.175443 -10.391510 2.006830 -48.697487 15.418479 16.406995 -3.606026 -24.804218 6.505891 0.000000 0.000000 0.000000 -3.087023 1.236182 10.288982 26.713802 4.224976 2.878882 39.178549 -12.248944 5.247127 -6.225920 25.783464 -4.068402 0.000000 0.000000 0.000000 
